<svg id="visual" viewBox="0 0 600 600" width="600" height="600" xmlns="http://www.w3.org/2000/svg" xmlns:xlink="http://www.w3.org/1999/xlink" version="1.1"><rect width="600" height="600" fill="#001829"></rect><g><g transform="translate(399 188)"><path d="M0 -127.2L110.1 -63.6L110.1 63.6L0 127.2L-110.1 63.6L-110.1 -63.6Z" fill="none" stroke="#297EA6" stroke-width="2"></path></g><g transform="translate(575 523)"><path d="M0 -106L91.8 -53L91.8 53L0 106L-91.8 53L-91.8 -53Z" fill="none" stroke="#297EA6" stroke-width="2"></path></g><g transform="translate(121 116)"><path d="M0 -73L63.2 -36.5L63.2 36.5L0 73L-63.2 36.5L-63.2 -36.5Z" stroke="#297EA6" fill="none" stroke-width="2"></path></g><g transform="translate(320 434)"><path d="M0 -93L80.5 -46.5L80.5 46.5L0 93L-80.5 46.5L-80.5 -46.5Z" stroke="#297EA6" fill="none" stroke-width="2"></path></g><g transform="translate(55 541)"><path d="M0 -73L63.2 -36.5L63.2 36.5L0 73L-63.2 36.5L-63.2 -36.5Z" stroke="#297EA6" fill="none" stroke-width="2"></path></g></g></svg>